STARTFONT 2.1
FONT --System08-Regular-R-Normal--6-80-54-54-C-60-ATARI-ST
SIZE 8 54 54
FONTBOUNDINGBOX 6 6 0 -1
STARTPROPERTIES 23
FONT_ASCENT 5
FONT_DESCENT 1
PIXEL_SIZE 6
RESOLUTION_X 54
RESOLUTION_Y 54
POINT_SIZE 80
FACE_NAME "6x6 system font"
FOUNDRY ""
FAMILY_NAME "System08"
WEIGHT_NAME "Regular"
RELATIVE_WEIGHT 50
SLANT "R"
SPACING "C"
SETWIDTH_NAME "Normal"
RELATIVE_SETWIDTH 50
ADD_STYLE_NAME ""
AVERAGE_WIDTH 60
STRIKEOUT_ASCENT 2
STRIKEOUT_DESCENT -1
CHARSET_REGISTRY "ATARI"
CHARSET_ENCODING "ST"
SOURCE_URL "https://github.com/th-otto/gemfedit/tree/master/fonts/tos"
GDOS "font-id=1 left-offset=0 right-offset=3 skew-mask=0xaaaa"
ENDPROPERTIES
CHARS 256
STARTCHAR char00
ENCODING 0
SWIDTH 1000 0
DWIDTH 6 0
BBX 6 6 0 -1
BITMAP 
00
00
00
00
00
00
ENDCHAR
STARTCHAR uni21E7
ENCODING 1
SWIDTH 1000 0
DWIDTH 6 0
BBX 6 6 0 -1
BITMAP 
20
70
D8
20
20
20
ENDCHAR
STARTCHAR uni21E9
ENCODING 2
SWIDTH 1000 0
DWIDTH 6 0
BBX 6 6 0 -1
BITMAP 
20
20
20
D8
70
20
ENDCHAR
STARTCHAR uni21E8
ENCODING 3
SWIDTH 1000 0
DWIDTH 6 0
BBX 6 6 0 -1
BITMAP 
10
18
EC
18
10
00
ENDCHAR
STARTCHAR uni21E6
ENCODING 4
SWIDTH 1000 0
DWIDTH 6 0
BBX 6 6 0 -1
BITMAP 
20
60
DC
60
20
00
ENDCHAR
STARTCHAR u01FBBD
ENCODING 5
SWIDTH 1000 0
DWIDTH 6 0
BBX 6 6 0 -1
BITMAP 
70
A8
D8
A8
70
00
ENDCHAR
STARTCHAR u01FBBE
ENCODING 6
SWIDTH 1000 0
DWIDTH 6 0
BBX 6 6 0 -1
BITMAP 
F8
F0
E0
C8
98
00
ENDCHAR
STARTCHAR u01FBBF
ENCODING 7
SWIDTH 1000 0
DWIDTH 6 0
BBX 6 6 0 -1
BITMAP 
D8
A8
70
A8
D8
00
ENDCHAR
STARTCHAR uni2713
ENCODING 8
SWIDTH 1000 0
DWIDTH 6 0
BBX 6 6 0 -1
BITMAP 
0C
18
B0
E0
40
00
ENDCHAR
STARTCHAR u01F552
ENCODING 9
SWIDTH 1000 0
DWIDTH 6 0
BBX 6 6 0 -1
BITMAP 
78
84
A4
B4
84
78
ENDCHAR
STARTCHAR u01F514
ENCODING 10
SWIDTH 1000 0
DWIDTH 6 0
BBX 6 6 0 -1
BITMAP 
30
78
78
FC
00
30
ENDCHAR
STARTCHAR musicalnote
ENCODING 11
SWIDTH 1000 0
DWIDTH 6 0
BBX 6 6 0 -1
BITMAP 
10
18
10
70
F0
60
ENDCHAR
STARTCHAR uni240C
ENCODING 12
SWIDTH 1000 0
DWIDTH 6 0
BBX 6 6 0 -1
BITMAP 
E0
80
DC
90
18
10
ENDCHAR
STARTCHAR uni240D
ENCODING 13
SWIDTH 1000 0
DWIDTH 6 0
BBX 6 6 0 -1
BITMAP 
E0
80
B8
E8
38
2C
ENDCHAR
STARTCHAR uniF82A
ENCODING 14
SWIDTH 1000 0
DWIDTH 6 0
BBX 6 6 0 -1
BITMAP 
14
14
14
34
74
64
ENDCHAR
STARTCHAR uniF82B
ENCODING 15
SWIDTH 1000 0
DWIDTH 6 0
BBX 6 6 0 -1
BITMAP 
40
40
40
60
70
30
ENDCHAR
STARTCHAR u01FBF0
ENCODING 16
SWIDTH 1000 0
DWIDTH 6 0
BBX 6 6 0 -1
BITMAP 
F8
C8
C8
D8
D8
F8
ENDCHAR
STARTCHAR u01FBF1
ENCODING 17
SWIDTH 1000 0
DWIDTH 6 0
BBX 6 6 0 -1
BITMAP 
60
20
20
70
70
70
ENDCHAR
STARTCHAR u01FBF2
ENCODING 18
SWIDTH 1000 0
DWIDTH 6 0
BBX 6 6 0 -1
BITMAP 
78
08
F8
C0
C0
F8
ENDCHAR
STARTCHAR u01FBF3
ENCODING 19
SWIDTH 1000 0
DWIDTH 6 0
BBX 6 6 0 -1
BITMAP 
F0
10
F8
18
18
F8
ENDCHAR
STARTCHAR u01FBF4
ENCODING 20
SWIDTH 1000 0
DWIDTH 6 0
BBX 6 6 0 -1
BITMAP 
C0
C0
C0
D8
F8
18
ENDCHAR
STARTCHAR u01FBF5
ENCODING 21
SWIDTH 1000 0
DWIDTH 6 0
BBX 6 6 0 -1
BITMAP 
F0
80
F8
18
18
F8
ENDCHAR
STARTCHAR u01FBF6
ENCODING 22
SWIDTH 1000 0
DWIDTH 6 0
BBX 6 6 0 -1
BITMAP 
C0
C0
F8
98
D8
F8
ENDCHAR
STARTCHAR u01FBF7
ENCODING 23
SWIDTH 1000 0
DWIDTH 6 0
BBX 6 6 0 -1
BITMAP 
F8
08
38
30
30
30
ENDCHAR
STARTCHAR u01FBF8
ENCODING 24
SWIDTH 1000 0
DWIDTH 6 0
BBX 6 6 0 -1
BITMAP 
70
50
70
D8
D8
F8
ENDCHAR
STARTCHAR u01FBF9
ENCODING 25
SWIDTH 1000 0
DWIDTH 6 0
BBX 6 6 0 -1
BITMAP 
F8
D8
C8
F8
18
18
ENDCHAR
STARTCHAR uni0259
ENCODING 26
SWIDTH 1000 0
DWIDTH 6 0
BBX 6 6 0 -1
BITMAP 
00
70
08
F8
70
00
ENDCHAR
STARTCHAR uni241B
ENCODING 27
SWIDTH 1000 0
DWIDTH 6 0
BBX 6 6 0 -1
BITMAP 
E0
80
DC
90
F0
1C
ENDCHAR
STARTCHAR uniF82C
ENCODING 28
SWIDTH 1000 0
DWIDTH 6 0
BBX 6 6 0 -1
BITMAP 
1C
3C
60
40
70
58
ENDCHAR
STARTCHAR uniF82D
ENCODING 29
SWIDTH 1000 0
DWIDTH 6 0
BBX 6 6 0 -1
BITMAP 
E0
D0
18
08
78
28
ENDCHAR
STARTCHAR uniF82E
ENCODING 30
SWIDTH 1000 0
DWIDTH 6 0
BBX 6 6 0 -1
BITMAP 
44
2C
28
14
EC
C0
ENDCHAR
STARTCHAR uniF82F
ENCODING 31
SWIDTH 1000 0
DWIDTH 6 0
BBX 6 6 0 -1
BITMAP 
08
D0
50
A0
C0
00
ENDCHAR
STARTCHAR space
ENCODING 32
SWIDTH 1000 0
DWIDTH 6 0
BBX 6 6 0 -1
BITMAP 
00
00
00
00
00
00
ENDCHAR
STARTCHAR exclam
ENCODING 33
SWIDTH 1000 0
DWIDTH 6 0
BBX 6 6 0 -1
BITMAP 
30
30
30
30
00
30
ENDCHAR
STARTCHAR quotedbl
ENCODING 34
SWIDTH 1000 0
DWIDTH 6 0
BBX 6 6 0 -1
BITMAP 
D8
D8
90
00
00
00
ENDCHAR
STARTCHAR numbersign
ENCODING 35
SWIDTH 1000 0
DWIDTH 6 0
BBX 6 6 0 -1
BITMAP 
50
F8
50
F8
50
00
ENDCHAR
STARTCHAR dollar
ENCODING 36
SWIDTH 1000 0
DWIDTH 6 0
BBX 6 6 0 -1
BITMAP 
78
A0
70
28
F0
20
ENDCHAR
STARTCHAR percent
ENCODING 37
SWIDTH 1000 0
DWIDTH 6 0
BBX 6 6 0 -1
BITMAP 
C8
D0
20
58
98
00
ENDCHAR
STARTCHAR ampersand
ENCODING 38
SWIDTH 1000 0
DWIDTH 6 0
BBX 6 6 0 -1
BITMAP 
60
D0
60
E8
D0
68
ENDCHAR
STARTCHAR quotesingle
ENCODING 39
SWIDTH 1000 0
DWIDTH 6 0
BBX 6 6 0 -1
BITMAP 
30
30
60
00
00
00
ENDCHAR
STARTCHAR parenleft
ENCODING 40
SWIDTH 1000 0
DWIDTH 6 0
BBX 6 6 0 -1
BITMAP 
30
60
60
60
30
00
ENDCHAR
STARTCHAR parenright
ENCODING 41
SWIDTH 1000 0
DWIDTH 6 0
BBX 6 6 0 -1
BITMAP 
60
30
30
30
60
00
ENDCHAR
STARTCHAR asterisk
ENCODING 42
SWIDTH 1000 0
DWIDTH 6 0
BBX 6 6 0 -1
BITMAP 
48
30
78
30
48
00
ENDCHAR
STARTCHAR plus
ENCODING 43
SWIDTH 1000 0
DWIDTH 6 0
BBX 6 6 0 -1
BITMAP 
20
20
F8
20
20
00
ENDCHAR
STARTCHAR comma
ENCODING 44
SWIDTH 1000 0
DWIDTH 6 0
BBX 6 6 0 -1
BITMAP 
00
00
00
30
30
60
ENDCHAR
STARTCHAR hyphen
ENCODING 45
SWIDTH 1000 0
DWIDTH 6 0
BBX 6 6 0 -1
BITMAP 
00
00
78
00
00
00
ENDCHAR
STARTCHAR period
ENCODING 46
SWIDTH 1000 0
DWIDTH 6 0
BBX 6 6 0 -1
BITMAP 
00
00
00
30
30
00
ENDCHAR
STARTCHAR slash
ENCODING 47
SWIDTH 1000 0
DWIDTH 6 0
BBX 6 6 0 -1
BITMAP 
18
30
60
C0
80
00
ENDCHAR
STARTCHAR zero
ENCODING 48
SWIDTH 1000 0
DWIDTH 6 0
BBX 6 6 0 -1
BITMAP 
70
98
A8
C8
70
00
ENDCHAR
STARTCHAR one
ENCODING 49
SWIDTH 1000 0
DWIDTH 6 0
BBX 6 6 0 -1
BITMAP 
10
30
10
10
10
00
ENDCHAR
STARTCHAR two
ENCODING 50
SWIDTH 1000 0
DWIDTH 6 0
BBX 6 6 0 -1
BITMAP 
F0
08
70
80
F8
00
ENDCHAR
STARTCHAR three
ENCODING 51
SWIDTH 1000 0
DWIDTH 6 0
BBX 6 6 0 -1
BITMAP 
F0
08
70
08
F0
00
ENDCHAR
STARTCHAR four
ENCODING 52
SWIDTH 1000 0
DWIDTH 6 0
BBX 6 6 0 -1
BITMAP 
30
50
90
F8
10
00
ENDCHAR
STARTCHAR five
ENCODING 53
SWIDTH 1000 0
DWIDTH 6 0
BBX 6 6 0 -1
BITMAP 
F0
80
F0
08
F0
00
ENDCHAR
STARTCHAR six
ENCODING 54
SWIDTH 1000 0
DWIDTH 6 0
BBX 6 6 0 -1
BITMAP 
70
80
F0
88
70
00
ENDCHAR
STARTCHAR seven
ENCODING 55
SWIDTH 1000 0
DWIDTH 6 0
BBX 6 6 0 -1
BITMAP 
F8
08
10
20
20
00
ENDCHAR
STARTCHAR eight
ENCODING 56
SWIDTH 1000 0
DWIDTH 6 0
BBX 6 6 0 -1
BITMAP 
70
88
70
88
70
00
ENDCHAR
STARTCHAR nine
ENCODING 57
SWIDTH 1000 0
DWIDTH 6 0
BBX 6 6 0 -1
BITMAP 
70
88
78
08
70
00
ENDCHAR
STARTCHAR colon
ENCODING 58
SWIDTH 1000 0
DWIDTH 6 0
BBX 6 6 0 -1
BITMAP 
30
30
00
30
30
00
ENDCHAR
STARTCHAR semicolon
ENCODING 59
SWIDTH 1000 0
DWIDTH 6 0
BBX 6 6 0 -1
BITMAP 
30
30
00
30
10
20
ENDCHAR
STARTCHAR less
ENCODING 60
SWIDTH 1000 0
DWIDTH 6 0
BBX 6 6 0 -1
BITMAP 
18
30
60
30
18
00
ENDCHAR
STARTCHAR equal
ENCODING 61
SWIDTH 1000 0
DWIDTH 6 0
BBX 6 6 0 -1
BITMAP 
00
78
00
78
00
00
ENDCHAR
STARTCHAR greater
ENCODING 62
SWIDTH 1000 0
DWIDTH 6 0
BBX 6 6 0 -1
BITMAP 
60
30
18
30
60
00
ENDCHAR
STARTCHAR question
ENCODING 63
SWIDTH 1000 0
DWIDTH 6 0
BBX 6 6 0 -1
BITMAP 
70
98
30
30
00
30
ENDCHAR
STARTCHAR at
ENCODING 64
SWIDTH 1000 0
DWIDTH 6 0
BBX 6 6 0 -1
BITMAP 
70
88
B8
B0
80
78
ENDCHAR
STARTCHAR A
ENCODING 65
SWIDTH 1000 0
DWIDTH 6 0
BBX 6 6 0 -1
BITMAP 
70
88
F8
88
88
00
ENDCHAR
STARTCHAR B
ENCODING 66
SWIDTH 1000 0
DWIDTH 6 0
BBX 6 6 0 -1
BITMAP 
F0
88
F0
88
F0
00
ENDCHAR
STARTCHAR C
ENCODING 67
SWIDTH 1000 0
DWIDTH 6 0
BBX 6 6 0 -1
BITMAP 
78
80
80
80
78
00
ENDCHAR
STARTCHAR D
ENCODING 68
SWIDTH 1000 0
DWIDTH 6 0
BBX 6 6 0 -1
BITMAP 
F0
88
88
88
F0
00
ENDCHAR
STARTCHAR E
ENCODING 69
SWIDTH 1000 0
DWIDTH 6 0
BBX 6 6 0 -1
BITMAP 
F8
80
F0
80
F8
00
ENDCHAR
STARTCHAR F
ENCODING 70
SWIDTH 1000 0
DWIDTH 6 0
BBX 6 6 0 -1
BITMAP 
F8
80
F0
80
80
00
ENDCHAR
STARTCHAR G
ENCODING 71
SWIDTH 1000 0
DWIDTH 6 0
BBX 6 6 0 -1
BITMAP 
78
80
98
88
78
00
ENDCHAR
STARTCHAR H
ENCODING 72
SWIDTH 1000 0
DWIDTH 6 0
BBX 6 6 0 -1
BITMAP 
88
88
F8
88
88
00
ENDCHAR
STARTCHAR I
ENCODING 73
SWIDTH 1000 0
DWIDTH 6 0
BBX 6 6 0 -1
BITMAP 
70
20
20
20
70
00
ENDCHAR
STARTCHAR J
ENCODING 74
SWIDTH 1000 0
DWIDTH 6 0
BBX 6 6 0 -1
BITMAP 
08
08
08
88
70
00
ENDCHAR
STARTCHAR K
ENCODING 75
SWIDTH 1000 0
DWIDTH 6 0
BBX 6 6 0 -1
BITMAP 
48
50
60
50
48
00
ENDCHAR
STARTCHAR L
ENCODING 76
SWIDTH 1000 0
DWIDTH 6 0
BBX 6 6 0 -1
BITMAP 
40
40
40
40
78
00
ENDCHAR
STARTCHAR M
ENCODING 77
SWIDTH 1000 0
DWIDTH 6 0
BBX 6 6 0 -1
BITMAP 
88
D8
A8
88
88
00
ENDCHAR
STARTCHAR N
ENCODING 78
SWIDTH 1000 0
DWIDTH 6 0
BBX 6 6 0 -1
BITMAP 
88
C8
A8
98
88
00
ENDCHAR
STARTCHAR O
ENCODING 79
SWIDTH 1000 0
DWIDTH 6 0
BBX 6 6 0 -1
BITMAP 
70
88
88
88
70
00
ENDCHAR
STARTCHAR P
ENCODING 80
SWIDTH 1000 0
DWIDTH 6 0
BBX 6 6 0 -1
BITMAP 
F0
88
F0
80
80
00
ENDCHAR
STARTCHAR Q
ENCODING 81
SWIDTH 1000 0
DWIDTH 6 0
BBX 6 6 0 -1
BITMAP 
70
88
88
88
70
18
ENDCHAR
STARTCHAR R
ENCODING 82
SWIDTH 1000 0
DWIDTH 6 0
BBX 6 6 0 -1
BITMAP 
F0
88
F0
A0
98
00
ENDCHAR
STARTCHAR S
ENCODING 83
SWIDTH 1000 0
DWIDTH 6 0
BBX 6 6 0 -1
BITMAP 
78
80
70
08
F0
00
ENDCHAR
STARTCHAR T
ENCODING 84
SWIDTH 1000 0
DWIDTH 6 0
BBX 6 6 0 -1
BITMAP 
F8
20
20
20
20
00
ENDCHAR
STARTCHAR U
ENCODING 85
SWIDTH 1000 0
DWIDTH 6 0
BBX 6 6 0 -1
BITMAP 
88
88
88
88
78
00
ENDCHAR
STARTCHAR V
ENCODING 86
SWIDTH 1000 0
DWIDTH 6 0
BBX 6 6 0 -1
BITMAP 
88
88
88
50
20
00
ENDCHAR
STARTCHAR W
ENCODING 87
SWIDTH 1000 0
DWIDTH 6 0
BBX 6 6 0 -1
BITMAP 
88
88
A8
D8
88
00
ENDCHAR
STARTCHAR X
ENCODING 88
SWIDTH 1000 0
DWIDTH 6 0
BBX 6 6 0 -1
BITMAP 
88
50
20
50
88
00
ENDCHAR
STARTCHAR Y
ENCODING 89
SWIDTH 1000 0
DWIDTH 6 0
BBX 6 6 0 -1
BITMAP 
88
88
50
20
20
00
ENDCHAR
STARTCHAR Z
ENCODING 90
SWIDTH 1000 0
DWIDTH 6 0
BBX 6 6 0 -1
BITMAP 
F8
10
20
40
F8
00
ENDCHAR
STARTCHAR bracketleft
ENCODING 91
SWIDTH 1000 0
DWIDTH 6 0
BBX 6 6 0 -1
BITMAP 
78
60
60
60
78
00
ENDCHAR
STARTCHAR backslash
ENCODING 92
SWIDTH 1000 0
DWIDTH 6 0
BBX 6 6 0 -1
BITMAP 
C0
60
30
18
08
00
ENDCHAR
STARTCHAR bracketright
ENCODING 93
SWIDTH 1000 0
DWIDTH 6 0
BBX 6 6 0 -1
BITMAP 
78
18
18
18
78
00
ENDCHAR
STARTCHAR asciicircum
ENCODING 94
SWIDTH 1000 0
DWIDTH 6 0
BBX 6 6 0 -1
BITMAP 
20
70
D8
00
00
00
ENDCHAR
STARTCHAR underscore
ENCODING 95
SWIDTH 1000 0
DWIDTH 6 0
BBX 6 6 0 -1
BITMAP 
00
00
00
00
00
F8
ENDCHAR
STARTCHAR grave
ENCODING 96
SWIDTH 1000 0
DWIDTH 6 0
BBX 6 6 0 -1
BITMAP 
60
60
30
00
00
00
ENDCHAR
STARTCHAR a
ENCODING 97
SWIDTH 1000 0
DWIDTH 6 0
BBX 6 6 0 -1
BITMAP 
00
70
08
F8
78
00
ENDCHAR
STARTCHAR b
ENCODING 98
SWIDTH 1000 0
DWIDTH 6 0
BBX 6 6 0 -1
BITMAP 
80
F0
88
88
F0
00
ENDCHAR
STARTCHAR c
ENCODING 99
SWIDTH 1000 0
DWIDTH 6 0
BBX 6 6 0 -1
BITMAP 
00
70
80
80
70
00
ENDCHAR
STARTCHAR d
ENCODING 100
SWIDTH 1000 0
DWIDTH 6 0
BBX 6 6 0 -1
BITMAP 
08
78
88
88
78
00
ENDCHAR
STARTCHAR e
ENCODING 101
SWIDTH 1000 0
DWIDTH 6 0
BBX 6 6 0 -1
BITMAP 
00
70
F8
80
70
00
ENDCHAR
STARTCHAR f
ENCODING 102
SWIDTH 1000 0
DWIDTH 6 0
BBX 6 6 0 -1
BITMAP 
18
20
78
20
20
00
ENDCHAR
STARTCHAR g
ENCODING 103
SWIDTH 1000 0
DWIDTH 6 0
BBX 6 6 0 -1
BITMAP 
00
78
88
78
08
F0
ENDCHAR
STARTCHAR h
ENCODING 104
SWIDTH 1000 0
DWIDTH 6 0
BBX 6 6 0 -1
BITMAP 
80
B0
C8
88
88
00
ENDCHAR
STARTCHAR i
ENCODING 105
SWIDTH 1000 0
DWIDTH 6 0
BBX 6 6 0 -1
BITMAP 
00
60
20
20
70
00
ENDCHAR
STARTCHAR j
ENCODING 106
SWIDTH 1000 0
DWIDTH 6 0
BBX 6 6 0 -1
BITMAP 
10
10
10
10
10
E0
ENDCHAR
STARTCHAR k
ENCODING 107
SWIDTH 1000 0
DWIDTH 6 0
BBX 6 6 0 -1
BITMAP 
80
90
E0
90
88
00
ENDCHAR
STARTCHAR l
ENCODING 108
SWIDTH 1000 0
DWIDTH 6 0
BBX 6 6 0 -1
BITMAP 
60
20
20
20
70
00
ENDCHAR
STARTCHAR m
ENCODING 109
SWIDTH 1000 0
DWIDTH 6 0
BBX 6 6 0 -1
BITMAP 
00
50
F8
A8
88
00
ENDCHAR
STARTCHAR n
ENCODING 110
SWIDTH 1000 0
DWIDTH 6 0
BBX 6 6 0 -1
BITMAP 
00
F0
88
88
88
00
ENDCHAR
STARTCHAR o
ENCODING 111
SWIDTH 1000 0
DWIDTH 6 0
BBX 6 6 0 -1
BITMAP 
00
70
88
88
70
00
ENDCHAR
STARTCHAR p
ENCODING 112
SWIDTH 1000 0
DWIDTH 6 0
BBX 6 6 0 -1
BITMAP 
00
F0
88
88
F0
80
ENDCHAR
STARTCHAR q
ENCODING 113
SWIDTH 1000 0
DWIDTH 6 0
BBX 6 6 0 -1
BITMAP 
00
78
88
88
78
08
ENDCHAR
STARTCHAR r
ENCODING 114
SWIDTH 1000 0
DWIDTH 6 0
BBX 6 6 0 -1
BITMAP 
00
70
48
40
40
00
ENDCHAR
STARTCHAR s
ENCODING 115
SWIDTH 1000 0
DWIDTH 6 0
BBX 6 6 0 -1
BITMAP 
00
38
60
18
70
00
ENDCHAR
STARTCHAR t
ENCODING 116
SWIDTH 1000 0
DWIDTH 6 0
BBX 6 6 0 -1
BITMAP 
20
70
20
20
10
00
ENDCHAR
STARTCHAR u
ENCODING 117
SWIDTH 1000 0
DWIDTH 6 0
BBX 6 6 0 -1
BITMAP 
00
88
88
88
78
00
ENDCHAR
STARTCHAR v
ENCODING 118
SWIDTH 1000 0
DWIDTH 6 0
BBX 6 6 0 -1
BITMAP 
00
88
88
50
20
00
ENDCHAR
STARTCHAR w
ENCODING 119
SWIDTH 1000 0
DWIDTH 6 0
BBX 6 6 0 -1
BITMAP 
00
88
A8
A8
D8
00
ENDCHAR
STARTCHAR x
ENCODING 120
SWIDTH 1000 0
DWIDTH 6 0
BBX 6 6 0 -1
BITMAP 
00
48
30
30
48
00
ENDCHAR
STARTCHAR y
ENCODING 121
SWIDTH 1000 0
DWIDTH 6 0
BBX 6 6 0 -1
BITMAP 
00
88
88
78
08
F0
ENDCHAR
STARTCHAR z
ENCODING 122
SWIDTH 1000 0
DWIDTH 6 0
BBX 6 6 0 -1
BITMAP 
00
78
10
20
78
00
ENDCHAR
STARTCHAR braceleft
ENCODING 123
SWIDTH 1000 0
DWIDTH 6 0
BBX 6 6 0 -1
BITMAP 
38
30
60
30
38
00
ENDCHAR
STARTCHAR bar
ENCODING 124
SWIDTH 1000 0
DWIDTH 6 0
BBX 6 6 0 -1
BITMAP 
30
30
30
30
30
30
ENDCHAR
STARTCHAR braceright
ENCODING 125
SWIDTH 1000 0
DWIDTH 6 0
BBX 6 6 0 -1
BITMAP 
70
30
18
30
70
00
ENDCHAR
STARTCHAR asciitilde
ENCODING 126
SWIDTH 1000 0
DWIDTH 6 0
BBX 6 6 0 -1
BITMAP 
40
E8
B8
10
00
00
ENDCHAR
STARTCHAR house
ENCODING 127
SWIDTH 1000 0
DWIDTH 6 0
BBX 6 6 0 -1
BITMAP 
00
20
70
C8
F8
00
ENDCHAR
STARTCHAR Ccedilla
ENCODING 128
SWIDTH 1000 0
DWIDTH 6 0
BBX 6 6 0 -1
BITMAP 
78
80
80
80
78
C0
ENDCHAR
STARTCHAR udieresis
ENCODING 129
SWIDTH 1000 0
DWIDTH 6 0
BBX 6 6 0 -1
BITMAP 
50
00
88
88
88
78
ENDCHAR
STARTCHAR eacute
ENCODING 130
SWIDTH 1000 0
DWIDTH 6 0
BBX 6 6 0 -1
BITMAP 
10
20
70
F8
80
70
ENDCHAR
STARTCHAR acircumflex
ENCODING 131
SWIDTH 1000 0
DWIDTH 6 0
BBX 6 6 0 -1
BITMAP 
20
50
70
08
F8
78
ENDCHAR
STARTCHAR adieresis
ENCODING 132
SWIDTH 1000 0
DWIDTH 6 0
BBX 6 6 0 -1
BITMAP 
50
00
70
08
F8
78
ENDCHAR
STARTCHAR agrave
ENCODING 133
SWIDTH 1000 0
DWIDTH 6 0
BBX 6 6 0 -1
BITMAP 
40
20
70
08
F8
78
ENDCHAR
STARTCHAR aring
ENCODING 134
SWIDTH 1000 0
DWIDTH 6 0
BBX 6 6 0 -1
BITMAP 
20
00
70
08
F8
78
ENDCHAR
STARTCHAR ccedilla
ENCODING 135
SWIDTH 1000 0
DWIDTH 6 0
BBX 6 6 0 -1
BITMAP 
00
78
80
80
78
E0
ENDCHAR
STARTCHAR ecircumflex
ENCODING 136
SWIDTH 1000 0
DWIDTH 6 0
BBX 6 6 0 -1
BITMAP 
20
50
70
F8
80
70
ENDCHAR
STARTCHAR edieresis
ENCODING 137
SWIDTH 1000 0
DWIDTH 6 0
BBX 6 6 0 -1
BITMAP 
50
00
70
F8
80
70
ENDCHAR
STARTCHAR egrave
ENCODING 138
SWIDTH 1000 0
DWIDTH 6 0
BBX 6 6 0 -1
BITMAP 
40
20
70
F8
80
70
ENDCHAR
STARTCHAR idieresis
ENCODING 139
SWIDTH 1000 0
DWIDTH 6 0
BBX 6 6 0 -1
BITMAP 
50
00
60
20
20
70
ENDCHAR
STARTCHAR icircumflex
ENCODING 140
SWIDTH 1000 0
DWIDTH 6 0
BBX 6 6 0 -1
BITMAP 
20
50
20
20
20
70
ENDCHAR
STARTCHAR igrave
ENCODING 141
SWIDTH 1000 0
DWIDTH 6 0
BBX 6 6 0 -1
BITMAP 
40
20
60
20
20
70
ENDCHAR
STARTCHAR Adieresis
ENCODING 142
SWIDTH 1000 0
DWIDTH 6 0
BBX 6 6 0 -1
BITMAP 
50
00
70
88
F8
88
ENDCHAR
STARTCHAR Aring
ENCODING 143
SWIDTH 1000 0
DWIDTH 6 0
BBX 6 6 0 -1
BITMAP 
20
00
70
88
F8
88
ENDCHAR
STARTCHAR Eacute
ENCODING 144
SWIDTH 1000 0
DWIDTH 6 0
BBX 6 6 0 -1
BITMAP 
20
F8
80
F0
80
F8
ENDCHAR
STARTCHAR ae
ENCODING 145
SWIDTH 1000 0
DWIDTH 6 0
BBX 6 6 0 -1
BITMAP 
00
F0
38
E0
78
00
ENDCHAR
STARTCHAR AE
ENCODING 146
SWIDTH 1000 0
DWIDTH 6 0
BBX 6 6 0 -1
BITMAP 
78
A0
F8
A0
B8
00
ENDCHAR
STARTCHAR ocircumflex
ENCODING 147
SWIDTH 1000 0
DWIDTH 6 0
BBX 6 6 0 -1
BITMAP 
20
50
70
88
88
70
ENDCHAR
STARTCHAR odieresis
ENCODING 148
SWIDTH 1000 0
DWIDTH 6 0
BBX 6 6 0 -1
BITMAP 
50
00
70
88
88
70
ENDCHAR
STARTCHAR ograve
ENCODING 149
SWIDTH 1000 0
DWIDTH 6 0
BBX 6 6 0 -1
BITMAP 
40
20
70
88
88
70
ENDCHAR
STARTCHAR ucircumflex
ENCODING 150
SWIDTH 1000 0
DWIDTH 6 0
BBX 6 6 0 -1
BITMAP 
20
50
88
88
88
78
ENDCHAR
STARTCHAR ugrave
ENCODING 151
SWIDTH 1000 0
DWIDTH 6 0
BBX 6 6 0 -1
BITMAP 
40
20
88
88
88
78
ENDCHAR
STARTCHAR ydieresis
ENCODING 152
SWIDTH 1000 0
DWIDTH 6 0
BBX 6 6 0 -1
BITMAP 
50
00
88
78
08
F0
ENDCHAR
STARTCHAR Odieresis
ENCODING 153
SWIDTH 1000 0
DWIDTH 6 0
BBX 6 6 0 -1
BITMAP 
50
00
70
88
88
70
ENDCHAR
STARTCHAR Udieresis
ENCODING 154
SWIDTH 1000 0
DWIDTH 6 0
BBX 6 6 0 -1
BITMAP 
50
00
88
88
88
78
ENDCHAR
STARTCHAR cent
ENCODING 155
SWIDTH 1000 0
DWIDTH 6 0
BBX 6 6 0 -1
BITMAP 
10
38
60
38
10
00
ENDCHAR
STARTCHAR sterling
ENCODING 156
SWIDTH 1000 0
DWIDTH 6 0
BBX 6 6 0 -1
BITMAP 
18
20
70
20
78
00
ENDCHAR
STARTCHAR yen
ENCODING 157
SWIDTH 1000 0
DWIDTH 6 0
BBX 6 6 0 -1
BITMAP 
88
D8
70
20
70
20
ENDCHAR
STARTCHAR germandbls
ENCODING 158
SWIDTH 1000 0
DWIDTH 6 0
BBX 6 6 0 -1
BITMAP 
F0
D8
F0
D8
F0
C0
ENDCHAR
STARTCHAR florin
ENCODING 159
SWIDTH 1000 0
DWIDTH 6 0
BBX 6 6 0 -1
BITMAP 
18
20
78
20
20
C0
ENDCHAR
STARTCHAR aacute
ENCODING 160
SWIDTH 1000 0
DWIDTH 6 0
BBX 6 6 0 -1
BITMAP 
10
20
70
08
F8
78
ENDCHAR
STARTCHAR iacute
ENCODING 161
SWIDTH 1000 0
DWIDTH 6 0
BBX 6 6 0 -1
BITMAP 
10
20
60
20
20
70
ENDCHAR
STARTCHAR oacute
ENCODING 162
SWIDTH 1000 0
DWIDTH 6 0
BBX 6 6 0 -1
BITMAP 
10
20
70
88
88
70
ENDCHAR
STARTCHAR uacute
ENCODING 163
SWIDTH 1000 0
DWIDTH 6 0
BBX 6 6 0 -1
BITMAP 
10
20
88
88
88
78
ENDCHAR
STARTCHAR ntilde
ENCODING 164
SWIDTH 1000 0
DWIDTH 6 0
BBX 6 6 0 -1
BITMAP 
F0
00
F0
88
88
88
ENDCHAR
STARTCHAR Ntilde
ENCODING 165
SWIDTH 1000 0
DWIDTH 6 0
BBX 6 6 0 -1
BITMAP 
78
00
48
68
58
48
ENDCHAR
STARTCHAR ordfeminine
ENCODING 166
SWIDTH 1000 0
DWIDTH 6 0
BBX 6 6 0 -1
BITMAP 
70
08
F8
78
00
F8
ENDCHAR
STARTCHAR ordmasculine
ENCODING 167
SWIDTH 1000 0
DWIDTH 6 0
BBX 6 6 0 -1
BITMAP 
70
88
88
70
00
F8
ENDCHAR
STARTCHAR questiondown
ENCODING 168
SWIDTH 1000 0
DWIDTH 6 0
BBX 6 6 0 -1
BITMAP 
60
00
60
60
C8
70
ENDCHAR
STARTCHAR revlogicalnot
ENCODING 169
SWIDTH 1000 0
DWIDTH 6 0
BBX 6 6 0 -1
BITMAP 
00
00
78
40
40
00
ENDCHAR
STARTCHAR logicalnot
ENCODING 170
SWIDTH 1000 0
DWIDTH 6 0
BBX 6 6 0 -1
BITMAP 
00
00
78
08
08
00
ENDCHAR
STARTCHAR onehalf
ENCODING 171
SWIDTH 1000 0
DWIDTH 6 0
BBX 6 6 0 -1
BITMAP 
C0
C0
D8
2C
18
3C
ENDCHAR
STARTCHAR onequarter
ENCODING 172
SWIDTH 1000 0
DWIDTH 6 0
BBX 6 6 0 -1
BITMAP 
C0
C0
CC
14
3C
04
ENDCHAR
STARTCHAR exclamdown
ENCODING 173
SWIDTH 1000 0
DWIDTH 6 0
BBX 6 6 0 -1
BITMAP 
30
00
30
30
30
30
ENDCHAR
STARTCHAR guillemotleft
ENCODING 174
SWIDTH 1000 0
DWIDTH 6 0
BBX 6 6 0 -1
BITMAP 
34
6C
D8
6C
34
00
ENDCHAR
STARTCHAR guillemotright
ENCODING 175
SWIDTH 1000 0
DWIDTH 6 0
BBX 6 6 0 -1
BITMAP 
B0
D8
6C
D8
B0
00
ENDCHAR
STARTCHAR atilde
ENCODING 176
SWIDTH 1000 0
DWIDTH 6 0
BBX 6 6 0 -1
BITMAP 
68
B0
70
08
F8
78
ENDCHAR
STARTCHAR otilde
ENCODING 177
SWIDTH 1000 0
DWIDTH 6 0
BBX 6 6 0 -1
BITMAP 
68
B0
70
88
88
70
ENDCHAR
STARTCHAR Oslash
ENCODING 178
SWIDTH 1000 0
DWIDTH 6 0
BBX 6 6 0 -1
BITMAP 
34
48
58
68
48
B0
ENDCHAR
STARTCHAR oslash
ENCODING 179
SWIDTH 1000 0
DWIDTH 6 0
BBX 6 6 0 -1
BITMAP 
08
30
58
68
30
40
ENDCHAR
STARTCHAR oe
ENCODING 180
SWIDTH 1000 0
DWIDTH 6 0
BBX 6 6 0 -1
BITMAP 
00
70
B8
A0
78
00
ENDCHAR
STARTCHAR OE
ENCODING 181
SWIDTH 1000 0
DWIDTH 6 0
BBX 6 6 0 -1
BITMAP 
78
B0
B8
B0
78
00
ENDCHAR
STARTCHAR Agrave
ENCODING 182
SWIDTH 1000 0
DWIDTH 6 0
BBX 6 6 0 -1
BITMAP 
40
20
70
88
F8
88
ENDCHAR
STARTCHAR Atilde
ENCODING 183
SWIDTH 1000 0
DWIDTH 6 0
BBX 6 6 0 -1
BITMAP 
68
B0
70
88
F8
88
ENDCHAR
STARTCHAR Otilde
ENCODING 184
SWIDTH 1000 0
DWIDTH 6 0
BBX 6 6 0 -1
BITMAP 
68
B0
70
88
88
70
ENDCHAR
STARTCHAR dieresis
ENCODING 185
SWIDTH 1000 0
DWIDTH 6 0
BBX 6 6 0 -1
BITMAP 
50
00
00
00
00
00
ENDCHAR
STARTCHAR acute
ENCODING 186
SWIDTH 1000 0
DWIDTH 6 0
BBX 6 6 0 -1
BITMAP 
10
20
00
00
00
00
ENDCHAR
STARTCHAR dagger
ENCODING 187
SWIDTH 1000 0
DWIDTH 6 0
BBX 6 6 0 -1
BITMAP 
20
70
20
20
20
00
ENDCHAR
STARTCHAR paragraph
ENCODING 188
SWIDTH 1000 0
DWIDTH 6 0
BBX 6 6 0 -1
BITMAP 
68
E8
E8
68
28
28
ENDCHAR
STARTCHAR copyright
ENCODING 189
SWIDTH 1000 0
DWIDTH 6 0
BBX 6 6 0 -1
BITMAP 
78
CC
B4
BC
C4
78
ENDCHAR
STARTCHAR registered
ENCODING 190
SWIDTH 1000 0
DWIDTH 6 0
BBX 6 6 0 -1
BITMAP 
78
8C
B4
8C
A4
78
ENDCHAR
STARTCHAR trademark
ENCODING 191
SWIDTH 1000 0
DWIDTH 6 0
BBX 6 6 0 -1
BITMAP 
F4
5C
54
00
00
00
ENDCHAR
STARTCHAR ij
ENCODING 192
SWIDTH 1000 0
DWIDTH 6 0
BBX 6 6 0 -1
BITMAP 
48
00
48
48
48
10
ENDCHAR
STARTCHAR IJ
ENCODING 193
SWIDTH 1000 0
DWIDTH 6 0
BBX 6 6 0 -1
BITMAP 
E8
48
48
E8
08
30
ENDCHAR
STARTCHAR uni05D0
ENCODING 194
SWIDTH 1000 0
DWIDTH 6 0
BBX 6 6 0 -1
BITMAP 
98
D8
70
D8
C8
00
ENDCHAR
STARTCHAR uni05D1
ENCODING 195
SWIDTH 1000 0
DWIDTH 6 0
BBX 6 6 0 -1
BITMAP 
F0
30
30
30
F8
00
ENDCHAR
STARTCHAR uni05D2
ENCODING 196
SWIDTH 1000 0
DWIDTH 6 0
BBX 6 6 0 -1
BITMAP 
78
08
18
38
68
00
ENDCHAR
STARTCHAR uni05D3
ENCODING 197
SWIDTH 1000 0
DWIDTH 6 0
BBX 6 6 0 -1
BITMAP 
FC
18
18
18
18
00
ENDCHAR
STARTCHAR uni05D4
ENCODING 198
SWIDTH 1000 0
DWIDTH 6 0
BBX 6 6 0 -1
BITMAP 
F0
18
D8
D8
D8
00
ENDCHAR
STARTCHAR uni05D5
ENCODING 199
SWIDTH 1000 0
DWIDTH 6 0
BBX 6 6 0 -1
BITMAP 
70
30
30
30
30
00
ENDCHAR
STARTCHAR uni05D6
ENCODING 200
SWIDTH 1000 0
DWIDTH 6 0
BBX 6 6 0 -1
BITMAP 
78
30
18
18
18
00
ENDCHAR
STARTCHAR uni05D7
ENCODING 201
SWIDTH 1000 0
DWIDTH 6 0
BBX 6 6 0 -1
BITMAP 
FC
6C
6C
6C
6C
00
ENDCHAR
STARTCHAR uni05D8
ENCODING 202
SWIDTH 1000 0
DWIDTH 6 0
BBX 6 6 0 -1
BITMAP 
C0
D8
D8
D8
F8
00
ENDCHAR
STARTCHAR uni05D9
ENCODING 203
SWIDTH 1000 0
DWIDTH 6 0
BBX 6 6 0 -1
BITMAP 
78
18
18
00
00
00
ENDCHAR
STARTCHAR uni05DB
ENCODING 204
SWIDTH 1000 0
DWIDTH 6 0
BBX 6 6 0 -1
BITMAP 
F0
18
18
18
F0
00
ENDCHAR
STARTCHAR uni05DC
ENCODING 205
SWIDTH 1000 0
DWIDTH 6 0
BBX 6 6 0 -1
BITMAP 
C0
F8
18
18
78
00
ENDCHAR
STARTCHAR uni05DE
ENCODING 206
SWIDTH 1000 0
DWIDTH 6 0
BBX 6 6 0 -1
BITMAP 
D8
7C
64
64
6C
00
ENDCHAR
STARTCHAR uni05E0
ENCODING 207
SWIDTH 1000 0
DWIDTH 6 0
BBX 6 6 0 -1
BITMAP 
38
18
18
18
78
00
ENDCHAR
STARTCHAR uni05E1
ENCODING 208
SWIDTH 1000 0
DWIDTH 6 0
BBX 6 6 0 -1
BITMAP 
F8
D8
D8
D8
70
00
ENDCHAR
STARTCHAR uni05E2
ENCODING 209
SWIDTH 1000 0
DWIDTH 6 0
BBX 6 6 0 -1
BITMAP 
6C
6C
6C
6C
FC
00
ENDCHAR
STARTCHAR uni05E4
ENCODING 210
SWIDTH 1000 0
DWIDTH 6 0
BBX 6 6 0 -1
BITMAP 
F8
98
D8
18
F8
00
ENDCHAR
STARTCHAR uni05E6
ENCODING 211
SWIDTH 1000 0
DWIDTH 6 0
BBX 6 6 0 -1
BITMAP 
D8
D8
70
38
F8
00
ENDCHAR
STARTCHAR uni05E7
ENCODING 212
SWIDTH 1000 0
DWIDTH 6 0
BBX 6 6 0 -1
BITMAP 
F8
18
D8
D0
C0
C0
ENDCHAR
STARTCHAR uni05E8
ENCODING 213
SWIDTH 1000 0
DWIDTH 6 0
BBX 6 6 0 -1
BITMAP 
70
18
18
18
18
00
ENDCHAR
STARTCHAR uni05E9
ENCODING 214
SWIDTH 1000 0
DWIDTH 6 0
BBX 6 6 0 -1
BITMAP 
D4
D4
F4
C4
FC
00
ENDCHAR
STARTCHAR uni05EA
ENCODING 215
SWIDTH 1000 0
DWIDTH 6 0
BBX 6 6 0 -1
BITMAP 
78
58
58
58
D8
00
ENDCHAR
STARTCHAR uni05DF
ENCODING 216
SWIDTH 1000 0
DWIDTH 6 0
BBX 6 6 0 -1
BITMAP 
38
18
18
18
18
00
ENDCHAR
STARTCHAR uni05DA
ENCODING 217
SWIDTH 1000 0
DWIDTH 6 0
BBX 6 6 0 -1
BITMAP 
F8
18
18
18
18
00
ENDCHAR
STARTCHAR uni05DD
ENCODING 218
SWIDTH 1000 0
DWIDTH 6 0
BBX 6 6 0 -1
BITMAP 
00
FC
6C
6C
7C
00
ENDCHAR
STARTCHAR uni05E3
ENCODING 219
SWIDTH 1000 0
DWIDTH 6 0
BBX 6 6 0 -1
BITMAP 
F8
98
D8
18
18
00
ENDCHAR
STARTCHAR uni05E5
ENCODING 220
SWIDTH 1000 0
DWIDTH 6 0
BBX 6 6 0 -1
BITMAP 
D8
D8
70
30
30
00
ENDCHAR
STARTCHAR section
ENCODING 221
SWIDTH 1000 0
DWIDTH 6 0
BBX 6 6 0 -1
BITMAP 
30
28
70
70
A0
60
ENDCHAR
STARTCHAR logicaland
ENCODING 222
SWIDTH 1000 0
DWIDTH 6 0
BBX 6 6 0 -1
BITMAP 
00
20
70
D8
88
00
ENDCHAR
STARTCHAR infinity
ENCODING 223
SWIDTH 1000 0
DWIDTH 6 0
BBX 6 6 0 -1
BITMAP 
00
58
B4
B4
68
00
ENDCHAR
STARTCHAR alpha
ENCODING 224
SWIDTH 1000 0
DWIDTH 6 0
BBX 6 6 0 -1
BITMAP 
00
68
D0
D0
68
00
ENDCHAR
STARTCHAR beta
ENCODING 225
SWIDTH 1000 0
DWIDTH 6 0
BBX 6 6 0 -1
BITMAP 
70
D8
F0
D8
F0
C0
ENDCHAR
STARTCHAR Gamma
ENCODING 226
SWIDTH 1000 0
DWIDTH 6 0
BBX 6 6 0 -1
BITMAP 
FC
6C
64
60
60
60
ENDCHAR
STARTCHAR pi
ENCODING 227
SWIDTH 1000 0
DWIDTH 6 0
BBX 6 6 0 -1
BITMAP 
00
F8
50
50
50
00
ENDCHAR
STARTCHAR Sigma
ENCODING 228
SWIDTH 1000 0
DWIDTH 6 0
BBX 6 6 0 -1
BITMAP 
F8
60
30
60
C0
F8
ENDCHAR
STARTCHAR sigma
ENCODING 229
SWIDTH 1000 0
DWIDTH 6 0
BBX 6 6 0 -1
BITMAP 
38
70
D8
D8
70
00
ENDCHAR
STARTCHAR mu
ENCODING 230
SWIDTH 1000 0
DWIDTH 6 0
BBX 6 6 0 -1
BITMAP 
00
68
68
68
7C
C0
ENDCHAR
STARTCHAR tau
ENCODING 231
SWIDTH 1000 0
DWIDTH 6 0
BBX 6 6 0 -1
BITMAP 
00
F8
30
30
30
20
ENDCHAR
STARTCHAR Phi
ENCODING 232
SWIDTH 1000 0
DWIDTH 6 0
BBX 6 6 0 -1
BITMAP 
70
70
A8
A8
70
70
ENDCHAR
STARTCHAR Theta
ENCODING 233
SWIDTH 1000 0
DWIDTH 6 0
BBX 6 6 0 -1
BITMAP 
70
D8
F8
D8
70
00
ENDCHAR
STARTCHAR uni03A9
ENCODING 234
SWIDTH 1000 0
DWIDTH 6 0
BBX 6 6 0 -1
BITMAP 
70
D8
D8
50
D8
00
ENDCHAR
STARTCHAR delta
ENCODING 235
SWIDTH 1000 0
DWIDTH 6 0
BBX 6 6 0 -1
BITMAP 
30
68
70
D8
D8
70
ENDCHAR
STARTCHAR uni222E
ENCODING 236
SWIDTH 1000 0
DWIDTH 6 0
BBX 6 6 0 -1
BITMAP 
18
20
70
A8
70
C0
ENDCHAR
STARTCHAR phi1
ENCODING 237
SWIDTH 1000 0
DWIDTH 6 0
BBX 6 6 0 -1
BITMAP 
20
70
A8
A8
70
20
ENDCHAR
STARTCHAR element
ENCODING 238
SWIDTH 1000 0
DWIDTH 6 0
BBX 6 6 0 -1
BITMAP 
38
40
78
40
38
00
ENDCHAR
STARTCHAR intersection
ENCODING 239
SWIDTH 1000 0
DWIDTH 6 0
BBX 6 6 0 -1
BITMAP 
30
48
48
48
48
00
ENDCHAR
STARTCHAR equivalence
ENCODING 240
SWIDTH 1000 0
DWIDTH 6 0
BBX 6 6 0 -1
BITMAP 
78
00
78
00
78
00
ENDCHAR
STARTCHAR plusminus
ENCODING 241
SWIDTH 1000 0
DWIDTH 6 0
BBX 6 6 0 -1
BITMAP 
20
F8
20
00
F8
00
ENDCHAR
STARTCHAR greaterequal
ENCODING 242
SWIDTH 1000 0
DWIDTH 6 0
BBX 6 6 0 -1
BITMAP 
60
18
60
00
78
00
ENDCHAR
STARTCHAR lessequal
ENCODING 243
SWIDTH 1000 0
DWIDTH 6 0
BBX 6 6 0 -1
BITMAP 
18
60
18
00
78
00
ENDCHAR
STARTCHAR integraltp
ENCODING 244
SWIDTH 1000 0
DWIDTH 6 0
BBX 6 6 0 -1
BITMAP 
0C
10
30
30
30
30
ENDCHAR
STARTCHAR integralbt
ENCODING 245
SWIDTH 1000 0
DWIDTH 6 0
BBX 6 6 0 -1
BITMAP 
30
30
30
30
20
C0
ENDCHAR
STARTCHAR divide
ENCODING 246
SWIDTH 1000 0
DWIDTH 6 0
BBX 6 6 0 -1
BITMAP 
20
00
F8
00
20
00
ENDCHAR
STARTCHAR approxequal
ENCODING 247
SWIDTH 1000 0
DWIDTH 6 0
BBX 6 6 0 -1
BITMAP 
68
B0
00
68
B0
00
ENDCHAR
STARTCHAR degree
ENCODING 248
SWIDTH 1000 0
DWIDTH 6 0
BBX 6 6 0 -1
BITMAP 
30
48
30
00
00
00
ENDCHAR
STARTCHAR uni2219
ENCODING 249
SWIDTH 1000 0
DWIDTH 6 0
BBX 6 6 0 -1
BITMAP 
30
78
30
00
00
00
ENDCHAR
STARTCHAR periodcentered
ENCODING 250
SWIDTH 1000 0
DWIDTH 6 0
BBX 6 6 0 -1
BITMAP 
00
00
30
30
00
00
ENDCHAR
STARTCHAR radical
ENCODING 251
SWIDTH 1000 0
DWIDTH 6 0
BBX 6 6 0 -1
BITMAP 
00
1C
10
D0
70
20
ENDCHAR
STARTCHAR uni207F
ENCODING 252
SWIDTH 1000 0
DWIDTH 6 0
BBX 6 6 0 -1
BITMAP 
70
68
68
68
00
00
ENDCHAR
STARTCHAR uni00B2
ENCODING 253
SWIDTH 1000 0
DWIDTH 6 0
BBX 6 6 0 -1
BITMAP 
70
18
30
78
00
00
ENDCHAR
STARTCHAR uni00B3
ENCODING 254
SWIDTH 1000 0
DWIDTH 6 0
BBX 6 6 0 -1
BITMAP 
70
30
10
70
00
00
ENDCHAR
STARTCHAR macron
ENCODING 255
SWIDTH 1000 0
DWIDTH 6 0
BBX 6 6 0 -1
BITMAP 
F8
00
00
00
00
00
ENDCHAR
ENDFONT
